<svg width="80" height="80" viewBox="0 0 80 80" fill="none" xmlns="http://www.w3.org/2000/svg">
<g clip-path="url(#clip0_18_53)">
<path fill-rule="evenodd" clip-rule="evenodd" d="M26.3667 13.567C26.5667 14.5003 26.7334 15.4337 27.0001 16.367C27.2648 17.3494 27.6104 18.3083 28.0334 19.2337C28.9147 20.7003 29.9422 22.0739 31.1001 23.3337C31.1564 23.4437 31.234 23.5414 31.3283 23.6211C31.4227 23.7009 31.532 23.7612 31.6498 23.7984C31.7676 23.8356 31.8917 23.849 32.0148 23.8379C32.1378 23.8268 32.2575 23.7914 32.3667 23.7337C32.5851 23.6074 32.7476 23.4032 32.8218 23.1621C32.896 22.9211 32.8763 22.6609 32.7667 22.4337C32.3001 21.0337 32.1001 19.7003 31.6667 18.3003C31.5001 17.7003 31.3001 17.1337 31.1001 16.567C30.9001 16.0003 30.6001 15.4337 30.3334 14.9003C30.0667 14.367 29.3667 13.3337 28.8667 12.367H29.1001C29.7428 11.8827 30.2482 11.2394 30.5667 10.5003C30.9501 9.53 31.0245 8.465 30.7799 7.45077C30.5353 6.43655 29.9836 5.52257 29.2001 4.83366C28.5021 4.09194 27.6434 3.52 26.69 3.16175C25.7366 2.8035 24.7138 2.66846 23.7001 2.76699C22.2042 2.9511 20.8399 3.7135 19.8992 4.89097C18.9584 6.06845 18.5161 7.56742 18.6667 9.06699C19.4667 14.367 26.2001 13.6337 26.3667 13.567ZM24.3334 6.36699C24.7987 6.31004 25.2707 6.35185 25.7187 6.4897C26.1667 6.62755 26.5806 6.85833 26.9334 7.16699C27.3027 7.40994 27.5977 7.75015 27.7859 8.15011C27.9741 8.55008 28.0482 8.99426 28.0001 9.43366C27.6862 10.0472 27.2087 10.5619 26.6204 10.9208C26.0321 11.2797 25.3559 11.4687 24.6667 11.467C24.2909 11.5035 23.9115 11.4637 23.5515 11.3498C23.1915 11.2359 22.8582 11.0504 22.5717 10.8044C22.2852 10.5584 22.0515 10.257 21.8845 9.91833C21.7175 9.57965 21.6208 9.2107 21.6001 8.83366C21.6334 7.66699 22.6001 6.66699 24.3334 6.36699Z" fill="#2962FF"/>
<path fill-rule="evenodd" clip-rule="evenodd" d="M80 28.2336C79.8296 27.444 79.4628 26.7103 78.9334 26.1002C78.2117 25.3534 77.2792 24.8448 76.2606 24.6422C75.242 24.4397 74.1859 24.553 73.2334 24.9669C72.2845 25.3086 71.4255 25.8611 70.7211 26.5828C70.0167 27.3045 69.4853 28.1767 69.1667 29.1336C69.0467 29.7371 68.9909 30.3516 69 30.9669L66.6 31.7669L64.8334 32.6002C64.27 32.9016 63.7246 33.2355 63.2 33.6002C61.9667 34.4669 60.9 35.4669 59.7 36.4336C59.59 36.4899 59.4923 36.5675 59.4126 36.6618C59.3328 36.7562 59.2725 36.8655 59.2353 36.9833C59.1981 37.1011 59.1847 37.2252 59.1958 37.3482C59.2069 37.4713 59.2423 37.591 59.3 37.7002C59.4263 37.9186 59.6305 38.0811 59.8716 38.1553C60.1126 38.2295 60.3729 38.2098 60.6 38.1002C62.2334 37.5002 63.9334 37.1002 65.4667 36.3669C66.3626 35.9193 67.2308 35.4184 68.0667 34.8669C68.6334 34.5336 69.1334 34.1669 69.6667 33.8002C69.9754 34.4149 70.4068 34.9597 70.9342 35.4012C71.4616 35.8426 72.074 36.1713 72.7334 36.3669C78.0334 37.9336 80.5 31.1669 80 28.2336ZM73.7667 33.5336C73.211 33.2052 72.7932 32.6864 72.5909 32.0734C72.3886 31.4604 72.4156 30.7949 72.6667 30.2002C72.815 29.757 73.0548 29.3498 73.3707 29.0053C73.6865 28.6607 74.0713 28.3864 74.5 28.2002C74.8708 27.9551 75.3055 27.8244 75.75 27.8244C76.1945 27.8244 76.6292 27.9551 77 28.2002C77.3396 28.5146 77.5824 28.9194 77.7 29.3669C77.8691 29.9358 77.8831 30.5396 77.7407 31.1157C77.5984 31.6919 77.3047 32.2196 76.8902 32.6443C76.4757 33.0691 75.9552 33.3754 75.3827 33.5318C74.8101 33.6881 74.2062 33.6887 73.6334 33.5336H73.7667Z" fill="#2962FF"/>
<path fill-rule="evenodd" clip-rule="evenodd" d="M58.4998 61.3667C57.8564 60.1834 57.0971 59.0668 56.2332 58.0334C54.825 56.4504 53.2236 55.0505 51.4665 53.8667C53.3433 52.1125 54.7892 49.9481 55.6913 47.5427C56.5933 45.1372 56.9271 42.5558 56.6665 40.0001C56.6534 37.9689 56.2404 35.9603 55.451 34.0888C54.6616 32.2173 53.5113 30.5196 52.0658 29.0927C50.6203 27.6657 48.9079 26.5375 47.0263 25.7724C45.1448 25.0072 43.131 24.6202 41.0998 24.6334C29.9998 25.1334 23.9665 32.8 23.7332 40.5C23.5922 43.484 24.3871 46.4373 26.0067 48.9474C27.6263 51.4575 29.9897 53.3988 32.7665 54.5001C30.4034 55.9073 28.1721 57.5249 26.0998 59.3334C24.3018 60.8834 22.7308 62.6788 21.4332 64.6667C20.2597 66.3532 19.4316 68.2554 18.9968 70.2635C18.562 72.2715 18.5291 74.3458 18.8998 76.3667C18.9396 76.6496 19.0901 76.9051 19.3183 77.077C19.5465 77.2489 19.8336 77.3232 20.1165 77.2834C20.3994 77.2436 20.6549 77.0931 20.8268 76.8649C20.9987 76.6367 21.0729 76.3496 21.0332 76.0667C20.962 72.6319 22.1473 69.2893 24.3665 66.6667C25.6341 64.9646 27.015 63.3498 28.4998 61.8334C30.6948 59.4935 33.009 57.2683 35.4332 55.1667C37.0543 55.6097 38.7206 55.8669 40.3998 55.9334C40.5225 55.9425 40.6457 55.9272 40.7624 55.8885C40.8791 55.8498 40.987 55.7884 41.08 55.7079C41.1729 55.6274 41.249 55.5293 41.3039 55.4192C41.3588 55.3092 41.3914 55.1894 41.3998 55.0667C41.4089 54.9397 41.3928 54.8122 41.3524 54.6914C41.312 54.5706 41.2482 54.459 41.1646 54.363C41.0809 54.267 40.9792 54.1885 40.8651 54.1319C40.751 54.0753 40.6269 54.0418 40.4998 54.0334C31.0665 53.3334 26.6665 47.5 26.6665 41.4667C27.9933 42.1141 29.4287 42.5097 30.8998 42.6334C31.5304 42.7165 32.1692 42.7165 32.7998 42.6334C34.9873 42.2713 36.9923 41.1926 38.4998 39.5667C38.7191 39.38 38.8616 39.1188 38.8998 38.8334C39.4481 39.1769 40.0157 39.4885 40.5998 39.7667C41.9611 40.4019 43.3935 40.8719 44.8665 41.1667C47.7424 41.7419 50.6942 41.8321 53.5998 41.4334C53.9991 44.5509 53.1833 47.7024 51.3214 50.2346C49.4596 52.7667 46.6946 54.4851 43.5998 55.0334C43.3197 55.0748 43.0664 55.2227 42.8925 55.4462C42.7187 55.6697 42.6377 55.9517 42.6665 56.2334C42.6829 56.3739 42.7272 56.5097 42.7966 56.633C42.8661 56.7563 42.9594 56.8645 43.0711 56.9513C43.1827 57.0382 43.3106 57.102 43.4471 57.1389C43.5837 57.1759 43.7263 57.1854 43.8665 57.1667C45.8413 57.0013 47.7543 56.3978 49.4665 55.4001C50.8955 56.8939 52.1894 58.5113 53.3332 60.2334C53.9998 61.2001 54.6332 62.1667 55.1998 63.1667C55.7665 64.1667 56.3332 65.1667 56.8332 66.2334C58.121 68.756 59.1808 71.3887 59.9998 74.1001C60.0237 74.2369 60.0749 74.3676 60.1504 74.4843C60.2259 74.6009 60.3242 74.7011 60.4393 74.7789C60.5545 74.8567 60.6841 74.9105 60.8205 74.9371C60.9569 74.9636 61.0973 74.9623 61.2332 74.9334C61.3744 74.9095 61.5093 74.8573 61.63 74.7801C61.7506 74.7029 61.8545 74.6022 61.9354 74.484C62.0163 74.3658 62.0725 74.2325 62.1008 74.0921C62.129 73.9517 62.1287 73.807 62.0998 73.6667C61.7192 70.688 61.015 67.7596 59.9998 64.9334C59.6016 63.7042 59.0998 62.511 58.4998 61.3667ZM37.2332 38.0334C36.6703 38.3528 36.064 38.5887 35.4332 38.7334C34.7998 38.7334 34.1332 38.7334 33.4332 39L31.3998 39.2667C30.0494 39.6108 28.6601 39.7789 27.2665 39.7667C27.2665 39.7667 27.0665 39.7667 26.9665 39.7667C27.2137 38.0582 27.8014 36.4167 28.6946 34.9395C29.5878 33.4623 30.7684 32.1793 32.1665 31.1667C33.3429 33.4911 34.9622 35.5632 36.9332 37.2667C37.141 37.4518 37.364 37.619 37.5998 37.7667C37.473 37.7798 37.3491 37.8136 37.2332 37.8667V38.0334ZM45.8332 38.0334C44.6186 37.6654 43.4368 37.1971 42.2998 36.6334C41.1415 36.0995 40.027 35.4753 38.9665 34.7667C37.1246 33.4415 35.5045 31.8326 34.1665 30C36.3676 28.9224 38.7825 28.3529 41.2332 28.3334C44.22 28.2909 47.1152 29.364 49.3529 31.3428C51.5906 33.3216 53.0099 36.0638 53.3332 39.0334C50.7879 38.974 48.2634 38.5589 45.8332 37.8V38.0334Z" fill="#080808"/>
<path fill-rule="evenodd" clip-rule="evenodd" d="M42.0998 61.1336C42.0999 60.8829 42.0027 60.6419 41.8285 60.4616C41.6544 60.2812 41.417 60.1755 41.1665 60.1669C41.0428 60.1577 40.9185 60.1742 40.8015 60.2153C40.6845 60.2564 40.5773 60.3212 40.4865 60.4057C40.3957 60.4902 40.3234 60.5926 40.2741 60.7064C40.2247 60.8201 40.1995 60.9429 40.1998 61.0669C39.8665 62.5336 39.4998 63.9002 39.2998 65.3669C39.2498 65.977 39.2498 66.5901 39.2998 67.2002C39.2657 67.8109 39.2657 68.4229 39.2998 69.0336C39.2998 70.5002 39.7665 71.9002 39.9998 73.3336C39.9995 73.4751 40.0283 73.6151 40.0843 73.745C40.1404 73.875 40.2225 73.992 40.3256 74.0889C40.4288 74.1857 40.5507 74.2604 40.6839 74.3082C40.817 74.3561 40.9586 74.376 41.0998 74.3669C41.2427 74.367 41.3842 74.3383 41.5158 74.2826C41.6475 74.227 41.7666 74.1454 41.8661 74.0428C41.9656 73.9402 42.0434 73.8186 42.095 73.6853C42.1466 73.5521 42.1709 73.4098 42.1665 73.2669C42.3331 71.8336 42.5665 70.4669 42.6998 69.0336C42.7321 68.4229 42.7321 67.8109 42.6998 67.2002C42.7497 66.6013 42.7497 65.9992 42.6998 65.4002C42.6331 63.9336 42.2998 62.6002 42.0998 61.1336Z" fill="#2962FF"/>
<path fill-rule="evenodd" clip-rule="evenodd" d="M21.2665 38.4666C21.3081 38.3485 21.3254 38.2233 21.3176 38.0983C21.3098 37.9734 21.2769 37.8513 21.2209 37.7394C21.1649 37.6274 21.087 37.5279 20.9917 37.4466C20.8965 37.3654 20.7859 37.3042 20.6665 37.2666C19.4665 36.5666 18.4998 35.7332 17.3332 34.9666L15.8998 34.0666L14.4665 33.3332L12.0332 32.1666C12.3755 31.2148 12.425 30.1823 12.1755 29.2021C11.926 28.222 11.3889 27.3389 10.6332 26.6666C9.92274 25.9488 9.0585 25.4017 8.10571 25.0668C7.15293 24.7319 6.1365 24.6178 5.13318 24.7332C3.62555 24.8933 2.24159 25.6406 1.28086 26.8134C0.320133 27.9863 -0.140076 29.4903 -0.000152154 30.9999C0.833181 36.5666 7.96651 35.9666 10.3998 34.1666C11.0587 34.8647 11.7601 35.5215 12.4998 36.1332C12.9757 36.5216 13.4768 36.878 13.9998 37.1999C14.5311 37.5239 15.0886 37.8027 15.6665 38.0332C17.0686 38.5359 18.5218 38.8824 19.9998 39.0666C20.1216 39.1191 20.2532 39.145 20.3858 39.1427C20.5184 39.1403 20.649 39.1097 20.7688 39.053C20.8887 38.9962 20.9951 38.9145 21.0809 38.8134C21.1667 38.7123 21.23 38.5941 21.2665 38.4666ZM3.09985 30.7332C3.09985 29.5666 4.03318 28.4999 5.76651 28.2666C6.22879 28.2189 6.69593 28.2684 7.13795 28.4119C7.57996 28.5554 7.98709 28.7897 8.33318 29.0999C8.71423 29.3328 9.02042 29.6702 9.21541 30.072C9.41039 30.4738 9.48598 30.9231 9.43318 31.3666C9.29479 31.8116 9.02808 32.2059 8.66651 32.4999C8.23415 32.9111 7.69936 33.1987 7.11794 33.3326C6.53653 33.4666 5.92981 33.4421 5.36111 33.2616C4.79241 33.0811 4.28257 32.7513 3.88482 32.3066C3.48707 31.8618 3.21598 31.3185 3.09985 30.7332Z" fill="#2962FF"/>
<path fill-rule="evenodd" clip-rule="evenodd" d="M53.3332 23.3334C54.4722 22.0183 55.5192 20.6261 56.4665 19.1667C56.9531 18.282 57.3872 17.3693 57.7665 16.4334C58.1998 15.4334 58.5332 14.4334 58.8998 13.4334C62.0332 13.6001 62.7331 13.6334 64.5998 12.2334C65.2493 11.7561 65.7564 11.1107 66.0665 10.3667C66.4423 9.40071 66.5127 8.34265 66.2684 7.33532C66.024 6.32799 65.4765 5.41985 64.6998 4.73341C63.9889 4.00491 63.1205 3.4489 62.1614 3.10799C61.2022 2.76709 60.1777 2.65036 59.1665 2.76674C57.6706 2.95085 56.3063 3.71324 55.3656 4.89072C54.4249 6.06819 53.9825 7.56717 54.1332 9.06674C54.2588 9.74514 54.5218 10.3907 54.9058 10.9639C55.2898 11.5371 55.7869 12.0258 56.3665 12.4001C55.7851 13.0937 55.24 13.8169 54.7332 14.5667C54.3998 15.1001 54.0665 15.6334 53.7665 16.2001C53.4665 16.7667 53.2332 17.3667 52.9998 17.9667C52.4665 19.3667 52.1332 20.7667 51.6665 22.2001C51.6022 22.3088 51.5606 22.4294 51.5443 22.5546C51.528 22.6798 51.5373 22.807 51.5715 22.9286C51.6058 23.0501 51.6644 23.1634 51.7438 23.2616C51.8231 23.3599 51.9215 23.441 52.0332 23.5001C52.2312 23.6407 52.4748 23.7016 52.7157 23.6707C52.9566 23.6398 53.177 23.5194 53.3332 23.3334ZM59.9998 6.36674C60.4621 6.31905 60.9292 6.36855 61.3713 6.51206C61.8133 6.65557 62.2204 6.88992 62.5665 7.20007C62.9478 7.42438 63.2551 7.75536 63.4505 8.15221C63.646 8.54905 63.7211 8.99442 63.6665 9.43341C63.5205 9.88419 63.2557 10.2872 62.8998 10.6001C62.4675 11.0112 61.9327 11.2988 61.3512 11.4328C60.7698 11.5668 60.1631 11.5423 59.5944 11.3618C59.0257 11.1813 58.5159 10.8515 58.1181 10.4067C57.7204 9.96199 57.4493 9.41865 57.3332 8.83341C57.0998 7.63341 58.0665 6.66674 59.7998 6.33341L59.9998 6.36674Z" fill="#2962FF"/>
</g>
<defs>
<clipPath id="clip0_18_53">
<rect width="80" height="80" fill="white"/>
</clipPath>
</defs>
</svg>
