<svg width="80" height="80" viewBox="0 0 80 80" fill="none" xmlns="http://www.w3.org/2000/svg">
<g clip-path="url(#clip0_18_38)">
<path d="M65.9335 28.5C64.7495 29.3273 63.7412 30.3809 62.9668 31.6C62.7335 31.8667 62.5335 33.6334 62.9668 34.1334L72.9668 42.8667L51.2668 66.6667C49.5422 63.1462 46.5728 60.3906 42.9335 58.9334C47.8668 52.7 56.4668 42.6 61.5668 36.6334C61.6456 36.5283 61.7029 36.4088 61.7355 36.2815C61.7681 36.1543 61.7753 36.0219 61.7568 35.8919C61.7382 35.7619 61.6942 35.6369 61.6273 35.5239C61.5604 35.4109 61.4719 35.3122 61.3668 35.2334C61.2618 35.1546 61.1422 35.0972 61.015 35.0646C60.8878 35.0321 60.7554 35.0248 60.6254 35.0434C60.4954 35.062 60.3703 35.106 60.2573 35.1729C60.1443 35.2398 60.0456 35.3283 59.9668 35.4334C43.9001 52.8667 36.6335 60.5 36.6335 62.4C36.4668 65.7334 34.3668 73.8334 35.9335 75.4334C38.1335 77.6667 47.8668 74.9667 49.7001 73.8334C51.5335 72.7 73.2668 47.3667 75.4668 44.5C78.2668 40.8334 79.9335 38.9667 80.1002 35.4334C80.0129 33.8284 79.499 32.2758 78.6114 30.9357C77.7238 29.5957 76.4948 28.5167 75.0511 27.8101C73.6074 27.1035 72.0013 26.795 70.3985 26.9163C68.7958 27.0375 67.2544 27.5843 65.9335 28.5ZM43.6335 71.6334C42.1162 71.7838 40.591 71.8395 39.0668 71.8C39.2668 69.0667 39.8335 64.5 39.9668 62.8667C40.2335 62.8667 41.2668 61 41.4001 60.7334C42.9035 62.5456 44.5779 64.2089 46.4001 65.7C47.5001 66.6334 48.6001 67.4667 49.5335 68.3667C47.4001 70.6667 47.9335 70.6 43.6335 71.6334ZM74.7335 40.9334C72.9668 39.3 66.5335 34.2667 64.7335 32.6C65.284 31.8868 65.9804 31.2993 66.7761 30.8767C67.5718 30.4541 68.4485 30.2061 69.3476 30.1493C70.2468 30.0925 71.1478 30.2282 71.9903 30.5474C72.8328 30.8665 73.5976 31.3618 74.2335 32C75.4262 32.7607 76.2753 33.9565 76.6001 35.3334C76.682 36.3444 76.5589 37.3615 76.2382 38.3238C75.9174 39.2861 75.4056 40.1737 74.7335 40.9334Z" fill="#080808"/>
<path d="M29.3 68.9002C20.6666 68.9002 6.66663 70.3002 3.2333 69.2335C3.2333 60.7669 3.5333 21.9002 4.69996 11.6669C4.86663 10.4335 5.56663 9.30019 5.29996 8.96685C9.99996 6.66685 54.7333 7.16685 63.7666 8.00019C64.3 9.96685 64.8666 18.2335 65.1666 21.5335C65.1931 21.8341 65.338 22.1118 65.5693 22.3056C65.8006 22.4994 66.0994 22.5934 66.4 22.5669C66.7005 22.5403 66.9783 22.3955 67.1721 22.1642C67.3659 21.9329 67.4598 21.6341 67.4333 21.3335C66.6666 9.26685 66.6666 6.66685 65.3666 5.73352C64.0666 4.80019 7.19996 1.63352 2.29996 6.46685C-1.43337 10.2335 0.499962 63.7669 0.433296 70.0002C0.433296 74.0002 16.6333 71.2335 29.3666 70.8002C29.5647 70.7277 29.7348 70.5945 29.8526 70.4195C29.9704 70.2445 30.0298 70.0368 30.0224 69.826C30.015 69.6152 29.9412 69.4122 29.8114 69.2459C29.6816 69.0796 29.5026 68.9586 29.3 68.9002Z" fill="#080808"/>
<path d="M28.8333 45.3668C23.228 44.6562 17.5835 44.3 11.9333 44.3002C10.0666 44.3002 8.29997 44.4668 8.26664 46.3668C7.29997 69.7002 6.49997 63.4335 25.4666 63.0335C25.7672 63.0335 26.0555 62.9141 26.268 62.7016C26.4806 62.489 26.6 62.2008 26.6 61.9002C26.6 61.5996 26.4806 61.3113 26.268 61.0988C26.0555 60.8862 25.7672 60.7668 25.4666 60.7668H19.3C16.2 60.7668 12.0666 61.2002 11.4666 61.0335C11.4666 59.5668 12.1 47.7002 12.0666 48.1002C16.2666 47.8668 26.6 47.5335 28.2666 47.8668C28.9333 47.8668 31.1666 51.7668 31.6 52.4002C31.6577 52.5222 31.7396 52.6313 31.8407 52.7209C31.9417 52.8105 32.0599 52.8786 32.188 52.9213C32.3161 52.9639 32.4515 52.9802 32.5861 52.9691C32.7207 52.958 32.8516 52.9198 32.971 52.8567C33.0904 52.7936 33.1958 52.707 33.2808 52.6021C33.3658 52.4972 33.4287 52.3761 33.4657 52.2463C33.5027 52.1164 33.5129 51.9804 33.4959 51.8464C33.4789 51.7125 33.4349 51.5833 33.3666 51.4668C32.4 49.6668 30.6666 45.8668 28.8333 45.3668Z" fill="#2962FF"/>
<path d="M46.2001 24.4001C47.6308 23.6889 49.1415 23.1517 50.7001 22.8001C50.9497 22.7414 51.2088 22.7347 51.4612 22.7806C51.7135 22.8265 51.9537 22.9239 52.1667 23.0667C52.9334 23.5334 56.6667 26.6667 56.9001 26.6667V28.2001C56.9001 28.4653 57.0054 28.7196 57.193 28.9072C57.3805 29.0947 57.6349 29.2001 57.9001 29.2001C58.1653 29.2001 58.4196 29.0947 58.6072 28.9072C58.7947 28.7196 58.9001 28.4653 58.9001 28.2001C59.3742 24.0357 59.3742 19.8311 58.9001 15.6667C57.1334 12.9334 51.7667 13.2001 49.4334 12.8001C40.9001 11.6667 10.8001 12.3667 10.4667 12.4667C8.26673 13.1667 8.3334 13.9334 8.26673 15.3667C7.73324 21.1615 7.55513 26.9835 7.7334 32.8001C7.75271 33.9197 8.03052 35.0197 8.54513 36.0142C9.05975 37.0088 9.79725 37.8709 10.7001 38.5334C14.9001 40.5001 45.5001 39.1334 50.1001 38.9001C50.3623 38.844 50.5961 38.6968 50.7601 38.4846C50.924 38.2724 51.0074 38.0089 50.9954 37.7411C50.9834 37.4732 50.8768 37.2182 50.6946 37.0215C50.5123 36.8248 50.2663 36.6991 50.0001 36.6667C49.6667 36.6667 13.3334 35.6001 13.1334 35.5334C19.0001 30.4334 22.4334 24.0334 29.0667 28.6001C31.3136 30.2942 33.39 32.2033 35.2667 34.3001C36.2257 35.2006 37.3606 35.8928 38.6001 36.3334C38.8393 36.3202 39.0687 36.2336 39.2571 36.0855C39.4454 35.9373 39.5836 35.7348 39.6527 35.5054C39.7219 35.2759 39.7188 35.0308 39.6438 34.8032C39.5687 34.5756 39.4255 34.3767 39.2334 34.2334C37.4667 32.6334 38.3001 34.2334 35.6001 30.5001C36.6667 30.0001 43.5334 25.7001 46.2001 24.4001ZM34.2001 28.7334C22.5001 14.7667 14.8667 31.2001 11.2334 32.9334C10.3667 29.4334 10.6667 26.6667 10.2667 15.0001C20.5667 15.0001 21.0334 15.4001 34.6667 15.9001C51.7667 16.5334 55.1334 16.2667 56.2667 17.1334C56.5164 19.1909 56.65 21.2609 56.6667 23.3334C54.4001 21.2334 53.3334 19.1001 50.0001 19.3667C45.3476 20.0863 41.0545 22.2972 37.7667 25.6667C37.2667 26.1001 35.3667 27.6667 34.2001 28.7334Z" fill="#2962FF"/>
</g>
<defs>
<clipPath id="clip0_18_38">
<rect width="80" height="80" fill="white"/>
</clipPath>
</defs>
</svg>
